<mxfile host="app.diagrams.net" agent="Mozilla/5.0 (Windows NT 10.0; Win64; x64) AppleWebKit/537.36 (KHTML, like Gecko) Chrome/136.0.0.0 Safari/537.36" version="27.0.9">
  <diagram name="Page-1" id="6EFixnBbDPSqF9TyHLz3">
    <mxGraphModel dx="1737" dy="878" grid="1" gridSize="10" guides="1" tooltips="1" connect="1" arrows="1" fold="1" page="1" pageScale="1" pageWidth="850" pageHeight="1100" math="0" shadow="0">
      <root>
        <mxCell id="0" />
        <mxCell id="1" parent="0" />
        <mxCell id="LV8GaCUOXe0nNPkoWkQV-36" style="edgeStyle=orthogonalEdgeStyle;rounded=0;orthogonalLoop=1;jettySize=auto;html=1;" edge="1" parent="1" source="LV8GaCUOXe0nNPkoWkQV-1" target="LV8GaCUOXe0nNPkoWkQV-2">
          <mxGeometry relative="1" as="geometry" />
        </mxCell>
        <mxCell id="LV8GaCUOXe0nNPkoWkQV-1" value="Start" style="strokeWidth=2;html=1;shape=mxgraph.flowchart.terminator;whiteSpace=wrap;" vertex="1" parent="1">
          <mxGeometry x="45" y="20" width="100" height="60" as="geometry" />
        </mxCell>
        <mxCell id="LV8GaCUOXe0nNPkoWkQV-41" style="edgeStyle=orthogonalEdgeStyle;rounded=0;orthogonalLoop=1;jettySize=auto;html=1;exitX=0.5;exitY=1;exitDx=0;exitDy=0;" edge="1" parent="1" source="LV8GaCUOXe0nNPkoWkQV-2" target="LV8GaCUOXe0nNPkoWkQV-4">
          <mxGeometry relative="1" as="geometry" />
        </mxCell>
        <mxCell id="LV8GaCUOXe0nNPkoWkQV-2" value="Motion Sensor&lt;div&gt;&amp;nbsp;detects student&amp;nbsp;&lt;/div&gt;&lt;div&gt;presence&lt;/div&gt;" style="shape=parallelogram;html=1;strokeWidth=2;perimeter=parallelogramPerimeter;whiteSpace=wrap;rounded=1;arcSize=12;size=0.23;" vertex="1" parent="1">
          <mxGeometry x="20" y="130" width="150" height="60" as="geometry" />
        </mxCell>
        <mxCell id="LV8GaCUOXe0nNPkoWkQV-42" style="edgeStyle=orthogonalEdgeStyle;rounded=0;orthogonalLoop=1;jettySize=auto;html=1;" edge="1" parent="1" source="LV8GaCUOXe0nNPkoWkQV-4" target="LV8GaCUOXe0nNPkoWkQV-9">
          <mxGeometry relative="1" as="geometry" />
        </mxCell>
        <mxCell id="LV8GaCUOXe0nNPkoWkQV-4" value="System power on automatically" style="rounded=1;whiteSpace=wrap;html=1;absoluteArcSize=1;arcSize=14;strokeWidth=2;" vertex="1" parent="1">
          <mxGeometry x="45" y="241" width="100" height="80" as="geometry" />
        </mxCell>
        <mxCell id="LV8GaCUOXe0nNPkoWkQV-43" style="edgeStyle=orthogonalEdgeStyle;rounded=0;orthogonalLoop=1;jettySize=auto;html=1;" edge="1" parent="1" source="LV8GaCUOXe0nNPkoWkQV-9" target="LV8GaCUOXe0nNPkoWkQV-16">
          <mxGeometry relative="1" as="geometry" />
        </mxCell>
        <mxCell id="LV8GaCUOXe0nNPkoWkQV-9" value="Scan QR scan" style="rounded=1;whiteSpace=wrap;html=1;absoluteArcSize=1;arcSize=14;strokeWidth=2;" vertex="1" parent="1">
          <mxGeometry x="220" y="256" width="100" height="50" as="geometry" />
        </mxCell>
        <mxCell id="LV8GaCUOXe0nNPkoWkQV-13" value="Stop" style="strokeWidth=2;html=1;shape=mxgraph.flowchart.terminator;whiteSpace=wrap;" vertex="1" parent="1">
          <mxGeometry x="720" y="1001" width="100" height="60" as="geometry" />
        </mxCell>
        <mxCell id="LV8GaCUOXe0nNPkoWkQV-45" style="edgeStyle=orthogonalEdgeStyle;rounded=0;orthogonalLoop=1;jettySize=auto;html=1;" edge="1" parent="1" source="LV8GaCUOXe0nNPkoWkQV-16">
          <mxGeometry relative="1" as="geometry">
            <mxPoint x="600" y="281" as="targetPoint" />
          </mxGeometry>
        </mxCell>
        <mxCell id="LV8GaCUOXe0nNPkoWkQV-16" value="Is QR code&amp;nbsp;&lt;div&gt;valid&lt;div&gt;&amp;nbsp;for today&lt;span style=&quot;background-color: transparent; color: light-dark(rgb(0, 0, 0), rgb(255, 255, 255));&quot;&gt;&amp;nbsp;?&lt;/span&gt;&lt;/div&gt;&lt;/div&gt;" style="strokeWidth=2;html=1;shape=mxgraph.flowchart.decision;whiteSpace=wrap;" vertex="1" parent="1">
          <mxGeometry x="416" y="221" width="120" height="120" as="geometry" />
        </mxCell>
        <mxCell id="LV8GaCUOXe0nNPkoWkQV-48" style="edgeStyle=orthogonalEdgeStyle;rounded=0;orthogonalLoop=1;jettySize=auto;html=1;exitX=0;exitY=0.5;exitDx=0;exitDy=0;exitPerimeter=0;entryX=1;entryY=0.5;entryDx=0;entryDy=0;" edge="1" parent="1" source="LV8GaCUOXe0nNPkoWkQV-17" target="LV8GaCUOXe0nNPkoWkQV-20">
          <mxGeometry relative="1" as="geometry" />
        </mxCell>
        <mxCell id="LV8GaCUOXe0nNPkoWkQV-49" style="edgeStyle=orthogonalEdgeStyle;rounded=0;orthogonalLoop=1;jettySize=auto;html=1;exitX=0.5;exitY=1;exitDx=0;exitDy=0;exitPerimeter=0;" edge="1" parent="1" source="LV8GaCUOXe0nNPkoWkQV-17" target="LV8GaCUOXe0nNPkoWkQV-22">
          <mxGeometry relative="1" as="geometry" />
        </mxCell>
        <mxCell id="LV8GaCUOXe0nNPkoWkQV-17" value="Is QR code&amp;nbsp;&lt;div&gt;&lt;div&gt;&lt;span style=&quot;background-color: transparent; color: light-dark(rgb(0, 0, 0), rgb(255, 255, 255));&quot;&gt;assigned ?&lt;/span&gt;&lt;/div&gt;&lt;/div&gt;" style="strokeWidth=2;html=1;shape=mxgraph.flowchart.decision;whiteSpace=wrap;" vertex="1" parent="1">
          <mxGeometry x="416" y="401" width="120" height="120" as="geometry" />
        </mxCell>
        <mxCell id="LV8GaCUOXe0nNPkoWkQV-46" style="edgeStyle=orthogonalEdgeStyle;rounded=0;orthogonalLoop=1;jettySize=auto;html=1;exitX=0.5;exitY=1;exitDx=0;exitDy=0;entryX=0.5;entryY=0;entryDx=0;entryDy=0;" edge="1" parent="1" source="LV8GaCUOXe0nNPkoWkQV-18" target="LV8GaCUOXe0nNPkoWkQV-19">
          <mxGeometry relative="1" as="geometry" />
        </mxCell>
        <mxCell id="LV8GaCUOXe0nNPkoWkQV-18" value="Reject QR" style="rounded=1;whiteSpace=wrap;html=1;absoluteArcSize=1;arcSize=14;strokeWidth=2;" vertex="1" parent="1">
          <mxGeometry x="600" y="256" width="100" height="50" as="geometry" />
        </mxCell>
        <mxCell id="LV8GaCUOXe0nNPkoWkQV-19" value="Red LED and Buzzer turns on" style="rounded=1;whiteSpace=wrap;html=1;absoluteArcSize=1;arcSize=14;strokeWidth=2;" vertex="1" parent="1">
          <mxGeometry x="600" y="351" width="100" height="50" as="geometry" />
        </mxCell>
        <mxCell id="LV8GaCUOXe0nNPkoWkQV-20" value="Prompt biometric (Face or Fingerprint)" style="rounded=1;whiteSpace=wrap;html=1;absoluteArcSize=1;arcSize=14;strokeWidth=2;" vertex="1" parent="1">
          <mxGeometry x="240" y="436" width="100" height="50" as="geometry" />
        </mxCell>
        <mxCell id="LV8GaCUOXe0nNPkoWkQV-56" style="edgeStyle=orthogonalEdgeStyle;rounded=0;orthogonalLoop=1;jettySize=auto;html=1;" edge="1" parent="1" source="LV8GaCUOXe0nNPkoWkQV-22">
          <mxGeometry relative="1" as="geometry">
            <mxPoint x="476" y="701" as="targetPoint" />
          </mxGeometry>
        </mxCell>
        <mxCell id="LV8GaCUOXe0nNPkoWkQV-22" value="Prompt biometric (Face or Fingerprint)" style="rounded=1;whiteSpace=wrap;html=1;absoluteArcSize=1;arcSize=14;strokeWidth=2;" vertex="1" parent="1">
          <mxGeometry x="426" y="591" width="100" height="50" as="geometry" />
        </mxCell>
        <mxCell id="LV8GaCUOXe0nNPkoWkQV-51" style="edgeStyle=orthogonalEdgeStyle;rounded=0;orthogonalLoop=1;jettySize=auto;html=1;exitX=0;exitY=0.5;exitDx=0;exitDy=0;" edge="1" parent="1" target="LV8GaCUOXe0nNPkoWkQV-25">
          <mxGeometry relative="1" as="geometry">
            <mxPoint x="240" y="616" as="sourcePoint" />
          </mxGeometry>
        </mxCell>
        <mxCell id="LV8GaCUOXe0nNPkoWkQV-54" style="edgeStyle=orthogonalEdgeStyle;rounded=0;orthogonalLoop=1;jettySize=auto;html=1;entryX=0.5;entryY=0;entryDx=0;entryDy=0;" edge="1" parent="1" target="LV8GaCUOXe0nNPkoWkQV-26">
          <mxGeometry relative="1" as="geometry">
            <mxPoint x="290" y="641" as="sourcePoint" />
          </mxGeometry>
        </mxCell>
        <mxCell id="LV8GaCUOXe0nNPkoWkQV-58" style="edgeStyle=orthogonalEdgeStyle;rounded=0;orthogonalLoop=1;jettySize=auto;html=1;entryX=0.5;entryY=0;entryDx=0;entryDy=0;" edge="1" parent="1" target="LV8GaCUOXe0nNPkoWkQV-27">
          <mxGeometry relative="1" as="geometry">
            <mxPoint x="476" y="751" as="sourcePoint" />
          </mxGeometry>
        </mxCell>
        <mxCell id="LV8GaCUOXe0nNPkoWkQV-61" style="edgeStyle=orthogonalEdgeStyle;rounded=0;orthogonalLoop=1;jettySize=auto;html=1;" edge="1" parent="1" target="LV8GaCUOXe0nNPkoWkQV-28">
          <mxGeometry relative="1" as="geometry">
            <mxPoint x="527" y="750" as="sourcePoint" />
          </mxGeometry>
        </mxCell>
        <mxCell id="LV8GaCUOXe0nNPkoWkQV-53" style="edgeStyle=orthogonalEdgeStyle;rounded=0;orthogonalLoop=1;jettySize=auto;html=1;exitX=0.5;exitY=1;exitDx=0;exitDy=0;" edge="1" parent="1" source="LV8GaCUOXe0nNPkoWkQV-25" target="LV8GaCUOXe0nNPkoWkQV-30">
          <mxGeometry relative="1" as="geometry" />
        </mxCell>
        <mxCell id="LV8GaCUOXe0nNPkoWkQV-25" value="Mark&lt;div&gt;&amp;nbsp;Attendance&lt;/div&gt;" style="rounded=1;whiteSpace=wrap;html=1;absoluteArcSize=1;arcSize=14;strokeWidth=2;" vertex="1" parent="1">
          <mxGeometry x="90" y="591" width="100" height="50" as="geometry" />
        </mxCell>
        <mxCell id="LV8GaCUOXe0nNPkoWkQV-55" style="edgeStyle=orthogonalEdgeStyle;rounded=0;orthogonalLoop=1;jettySize=auto;html=1;" edge="1" parent="1" source="LV8GaCUOXe0nNPkoWkQV-26" target="LV8GaCUOXe0nNPkoWkQV-34">
          <mxGeometry relative="1" as="geometry" />
        </mxCell>
        <mxCell id="LV8GaCUOXe0nNPkoWkQV-26" value="Reject&lt;div&gt;&amp;nbsp;Attendance&lt;/div&gt;" style="rounded=1;whiteSpace=wrap;html=1;absoluteArcSize=1;arcSize=14;strokeWidth=2;" vertex="1" parent="1">
          <mxGeometry x="240" y="727" width="100" height="50" as="geometry" />
        </mxCell>
        <mxCell id="LV8GaCUOXe0nNPkoWkQV-59" style="edgeStyle=orthogonalEdgeStyle;rounded=0;orthogonalLoop=1;jettySize=auto;html=1;" edge="1" parent="1" source="LV8GaCUOXe0nNPkoWkQV-27" target="LV8GaCUOXe0nNPkoWkQV-32">
          <mxGeometry relative="1" as="geometry" />
        </mxCell>
        <mxCell id="LV8GaCUOXe0nNPkoWkQV-27" value="Assign QR to student" style="rounded=1;whiteSpace=wrap;html=1;absoluteArcSize=1;arcSize=14;strokeWidth=2;" vertex="1" parent="1">
          <mxGeometry x="428" y="841" width="100" height="50" as="geometry" />
        </mxCell>
        <mxCell id="LV8GaCUOXe0nNPkoWkQV-62" style="edgeStyle=orthogonalEdgeStyle;rounded=0;orthogonalLoop=1;jettySize=auto;html=1;" edge="1" parent="1" source="LV8GaCUOXe0nNPkoWkQV-28" target="LV8GaCUOXe0nNPkoWkQV-33">
          <mxGeometry relative="1" as="geometry" />
        </mxCell>
        <mxCell id="LV8GaCUOXe0nNPkoWkQV-28" value="Reject QR" style="rounded=1;whiteSpace=wrap;html=1;absoluteArcSize=1;arcSize=14;strokeWidth=2;" vertex="1" parent="1">
          <mxGeometry x="591" y="726" width="100" height="50" as="geometry" />
        </mxCell>
        <mxCell id="LV8GaCUOXe0nNPkoWkQV-30" value="Green LED on" style="rounded=1;whiteSpace=wrap;html=1;absoluteArcSize=1;arcSize=14;strokeWidth=2;" vertex="1" parent="1">
          <mxGeometry x="90" y="691" width="100" height="50" as="geometry" />
        </mxCell>
        <mxCell id="LV8GaCUOXe0nNPkoWkQV-60" style="edgeStyle=orthogonalEdgeStyle;rounded=0;orthogonalLoop=1;jettySize=auto;html=1;" edge="1" parent="1" source="LV8GaCUOXe0nNPkoWkQV-32" target="LV8GaCUOXe0nNPkoWkQV-35">
          <mxGeometry relative="1" as="geometry" />
        </mxCell>
        <mxCell id="LV8GaCUOXe0nNPkoWkQV-32" value="Mark&amp;nbsp;&lt;div&gt;Attendance&lt;/div&gt;" style="rounded=1;whiteSpace=wrap;html=1;absoluteArcSize=1;arcSize=14;strokeWidth=2;" vertex="1" parent="1">
          <mxGeometry x="428" y="931" width="100" height="50" as="geometry" />
        </mxCell>
        <mxCell id="LV8GaCUOXe0nNPkoWkQV-33" value="Red LED and Buzzer turns on" style="rounded=1;whiteSpace=wrap;html=1;absoluteArcSize=1;arcSize=14;strokeWidth=2;" vertex="1" parent="1">
          <mxGeometry x="591" y="816" width="100" height="50" as="geometry" />
        </mxCell>
        <mxCell id="LV8GaCUOXe0nNPkoWkQV-68" style="edgeStyle=orthogonalEdgeStyle;rounded=0;orthogonalLoop=1;jettySize=auto;html=1;endArrow=none;startFill=0;" edge="1" parent="1" source="LV8GaCUOXe0nNPkoWkQV-34">
          <mxGeometry relative="1" as="geometry">
            <mxPoint x="290.0000000000002" y="1031" as="targetPoint" />
          </mxGeometry>
        </mxCell>
        <mxCell id="LV8GaCUOXe0nNPkoWkQV-34" value="Red LED and Buzzer turns on" style="rounded=1;whiteSpace=wrap;html=1;absoluteArcSize=1;arcSize=14;strokeWidth=2;" vertex="1" parent="1">
          <mxGeometry x="240" y="837" width="100" height="50" as="geometry" />
        </mxCell>
        <mxCell id="LV8GaCUOXe0nNPkoWkQV-70" style="edgeStyle=orthogonalEdgeStyle;rounded=0;orthogonalLoop=1;jettySize=auto;html=1;endArrow=none;startFill=0;" edge="1" parent="1" source="LV8GaCUOXe0nNPkoWkQV-35">
          <mxGeometry relative="1" as="geometry">
            <mxPoint x="730" y="956" as="targetPoint" />
          </mxGeometry>
        </mxCell>
        <mxCell id="LV8GaCUOXe0nNPkoWkQV-35" value="Green LED on" style="rounded=1;whiteSpace=wrap;html=1;absoluteArcSize=1;arcSize=14;strokeWidth=2;" vertex="1" parent="1">
          <mxGeometry x="570" y="931" width="100" height="50" as="geometry" />
        </mxCell>
        <mxCell id="LV8GaCUOXe0nNPkoWkQV-44" style="edgeStyle=orthogonalEdgeStyle;rounded=0;orthogonalLoop=1;jettySize=auto;html=1;entryX=0.5;entryY=0;entryDx=0;entryDy=0;entryPerimeter=0;" edge="1" parent="1" source="LV8GaCUOXe0nNPkoWkQV-16" target="LV8GaCUOXe0nNPkoWkQV-17">
          <mxGeometry relative="1" as="geometry" />
        </mxCell>
        <mxCell id="LV8GaCUOXe0nNPkoWkQV-47" style="edgeStyle=orthogonalEdgeStyle;rounded=0;orthogonalLoop=1;jettySize=auto;html=1;entryX=0.5;entryY=0;entryDx=0;entryDy=0;entryPerimeter=0;" edge="1" parent="1" source="LV8GaCUOXe0nNPkoWkQV-19" target="LV8GaCUOXe0nNPkoWkQV-13">
          <mxGeometry relative="1" as="geometry" />
        </mxCell>
        <mxCell id="LV8GaCUOXe0nNPkoWkQV-63" value="Biometric&amp;nbsp;&lt;div&gt;Match?&lt;/div&gt;" style="strokeWidth=2;html=1;shape=mxgraph.flowchart.decision;whiteSpace=wrap;" vertex="1" parent="1">
          <mxGeometry x="238" y="566" width="104" height="100" as="geometry" />
        </mxCell>
        <mxCell id="LV8GaCUOXe0nNPkoWkQV-64" value="Biometric&amp;nbsp;&lt;div&gt;Match?&lt;/div&gt;" style="strokeWidth=2;html=1;shape=mxgraph.flowchart.decision;whiteSpace=wrap;" vertex="1" parent="1">
          <mxGeometry x="426" y="701" width="104" height="100" as="geometry" />
        </mxCell>
        <mxCell id="LV8GaCUOXe0nNPkoWkQV-66" style="edgeStyle=orthogonalEdgeStyle;rounded=0;orthogonalLoop=1;jettySize=auto;html=1;entryX=0;entryY=0.5;entryDx=0;entryDy=0;entryPerimeter=0;" edge="1" parent="1" source="LV8GaCUOXe0nNPkoWkQV-30" target="LV8GaCUOXe0nNPkoWkQV-13">
          <mxGeometry relative="1" as="geometry">
            <Array as="points">
              <mxPoint x="140" y="1031" />
            </Array>
          </mxGeometry>
        </mxCell>
        <mxCell id="LV8GaCUOXe0nNPkoWkQV-69" style="edgeStyle=orthogonalEdgeStyle;rounded=0;orthogonalLoop=1;jettySize=auto;html=1;entryX=0.11;entryY=0.11;entryDx=0;entryDy=0;entryPerimeter=0;" edge="1" parent="1" source="LV8GaCUOXe0nNPkoWkQV-33" target="LV8GaCUOXe0nNPkoWkQV-13">
          <mxGeometry relative="1" as="geometry" />
        </mxCell>
        <mxCell id="LV8GaCUOXe0nNPkoWkQV-71" style="edgeStyle=orthogonalEdgeStyle;rounded=0;orthogonalLoop=1;jettySize=auto;html=1;entryX=0.5;entryY=0;entryDx=0;entryDy=0;entryPerimeter=0;" edge="1" parent="1" source="LV8GaCUOXe0nNPkoWkQV-20" target="LV8GaCUOXe0nNPkoWkQV-63">
          <mxGeometry relative="1" as="geometry" />
        </mxCell>
        <mxCell id="LV8GaCUOXe0nNPkoWkQV-72" value="Yes" style="text;html=1;align=center;verticalAlign=middle;resizable=0;points=[];autosize=1;strokeColor=none;fillColor=none;" vertex="1" parent="1">
          <mxGeometry x="383" y="429" width="40" height="30" as="geometry" />
        </mxCell>
        <mxCell id="LV8GaCUOXe0nNPkoWkQV-73" value="No" style="text;html=1;align=center;verticalAlign=middle;resizable=0;points=[];autosize=1;strokeColor=none;fillColor=none;" vertex="1" parent="1">
          <mxGeometry x="475" y="512" width="40" height="30" as="geometry" />
        </mxCell>
        <mxCell id="LV8GaCUOXe0nNPkoWkQV-74" value="No" style="text;html=1;align=center;verticalAlign=middle;resizable=0;points=[];autosize=1;strokeColor=none;fillColor=none;" vertex="1" parent="1">
          <mxGeometry x="517" y="721" width="40" height="30" as="geometry" />
        </mxCell>
        <mxCell id="LV8GaCUOXe0nNPkoWkQV-75" value="No" style="text;html=1;align=center;verticalAlign=middle;resizable=0;points=[];autosize=1;strokeColor=none;fillColor=none;" vertex="1" parent="1">
          <mxGeometry x="290" y="658" width="40" height="30" as="geometry" />
        </mxCell>
        <mxCell id="LV8GaCUOXe0nNPkoWkQV-76" value="Yes" style="text;html=1;align=center;verticalAlign=middle;resizable=0;points=[];autosize=1;strokeColor=none;fillColor=none;" vertex="1" parent="1">
          <mxGeometry x="207" y="587" width="40" height="30" as="geometry" />
        </mxCell>
        <mxCell id="LV8GaCUOXe0nNPkoWkQV-77" value="Yes" style="text;html=1;align=center;verticalAlign=middle;resizable=0;points=[];autosize=1;strokeColor=none;fillColor=none;" vertex="1" parent="1">
          <mxGeometry x="478" y="792" width="40" height="30" as="geometry" />
        </mxCell>
        <mxCell id="LV8GaCUOXe0nNPkoWkQV-78" value="Yes" style="text;html=1;align=center;verticalAlign=middle;resizable=0;points=[];autosize=1;strokeColor=none;fillColor=none;" vertex="1" parent="1">
          <mxGeometry x="435" y="331" width="40" height="30" as="geometry" />
        </mxCell>
        <mxCell id="LV8GaCUOXe0nNPkoWkQV-79" value="No" style="text;html=1;align=center;verticalAlign=middle;resizable=0;points=[];autosize=1;strokeColor=none;fillColor=none;" vertex="1" parent="1">
          <mxGeometry x="527" y="251" width="40" height="30" as="geometry" />
        </mxCell>
      </root>
    </mxGraphModel>
  </diagram>
</mxfile>
